<svg enable-background="new 0 0 242.2 107.4" viewBox="0 0 242.2 107.4" xmlns="http://www.w3.org/2000/svg"><g fill="#0075a8"><path d="m229 23.6-2.5-14.9c-.8-4.8-2.7-8.7-4.1-8.7-1.5 0-2.7 4-2.7 8.8v3.9c0 4.8-4 8.8-8.8 8.8h-3.9c-.3 0-.6 0-.8 0v10.7h.8 14.7c4.8 0 8.1-3.9 7.3-8.6"/><path d="m193.9 11h-23.7c-.2 0-.4 0-.6 0h-24.4c-.3 0-.6 0-.8.1v-2.3c0-4.8-1.2-8.8-2.7-8.8s-3.3 3.9-4.1 8.7l-2.5 14.9c-.8 4.8 2.5 8.7 7.4 8.7h14.6c1.5 0 2.9-.2 4.2-.6-.5 2.5-2.6 4.4-5.3 4.4h-20.5c-3.3 0-5.8-3-5.3-6.3l2.1-12.5c.5-3.3-2-6.3-5.3-6.3h-102.2c-2.2 0-4 1.3-4.9 3.2l-19.2 29.3c-.3.5-.3 1.1.1 1.6l3.7 4.4c.5.6 1.3.6 1.9.2l13.1-10.3v62.6c0 3 2.4 5.4 5.4 5.4h29c3 0 5.4-2.4 5.4-5.4v-21.8c0-3 2.4-5.4 5.4-5.4h72.4c3 0 5.4 2.4 5.4 5.4v21.8c0 3 2.4 5.4 5.4 5.4h29c3 0 5.4-2.4 5.4-5.4v-23.4h-15.4c-4.8 0-8.8-4-8.8-8.8v-15.1c0-2.9 1.4-5.4 3.5-7v18c0 4.8 4 8.8 8.8 8.8h23.7c4.8 0 8.8-4 8.8-8.8v-45.8c-.2-5-4.1-8.9-9-8.9"/><path d="m230.6 5.6c0-3.9 2.9-5.6 5.6-5.6s5.6 1.7 5.6 5.6c0 3.8-2.9 5.5-5.6 5.5s-5.6-1.7-5.6-5.5zm9.9 0c0-3.1-2-4.4-4.2-4.4s-4.3 1.3-4.3 4.4c0 3 2.1 4.4 4.3 4.4 2.2-.1 4.2-1.4 4.2-4.4zm-6.1-2.8h2c1 0 2 .3 2 1.7 0 .8-.6 1.3-1.3 1.5l1.3 2.3h-1.2l-1.2-2.2h-.5v2.2h-1.1zm2 2.5c.5 0 .9-.3.9-.8 0-.6-.5-.7-.9-.7h-1v1.5z"/></g></svg>