<svg height="768" viewBox="-1.7338671 -1.7338671 61.2633042 65.4082292" width="719" xmlns="http://www.w3.org/2000/svg"><path d="m54.22782 11.986615c-.5725-1.1825-1.235-2.3237504-2.00375-3.4000004l-8.2125 2.9887504c.955.9775 1.7575 2.07625 2.41375 3.25125zm-36.30287 9.08338-8.215 2.98875c.105 1.3175.3325 2.61875.65125 3.89375l7.80375-2.84125c-.25375-1.32-.34375-2.68-.24-4.04125" fill="#c22133"/><path d="m36.1562 9.6601146c1.70875.7975004 3.18875 1.8850004 4.4375 3.1600004l8.2125-2.9887504c-2.275-3.1925-5.37375-5.86-9.17-7.63125-11.74125-5.475-25.74875-.3775-31.2225 11.3625004-1.7725 3.79875-2.43125 7.83375-2.12125 11.74125l8.21375-2.98875c.13625-1.78.57-3.56375 1.36625-5.27375 3.5575-7.6275004 12.65625-10.9375004 20.28375-7.3812504" fill="#db212e"/><path d="m44.91582 24.668245c-.13125 1.77875-.58 3.5625-1.37875 5.27375-3.55625 7.62875-12.65625 10.93875-20.2825 7.3825-1.71125-.79875-3.2025-1.8775-4.44625-3.155l-8.19625 2.9825c2.27 3.1925 5.365 5.86125 9.16375 7.63375 11.74125 5.47375 25.74625.37625 31.22125-11.365 1.77375-3.79625 2.4275-7.83125 2.115-11.735z" fill="#db212e"/><path d="m46.93545 14.641115-7.80375 2.84c1.45 2.5975 2.135 5.5875 1.91 8.595l8.19625-2.98125c-.235-2.94125-1.01875-5.8125-2.3025-8.45375m-36.06275 13.124-7.80375 2.8425c.71625 2.845 1.96 5.54875 3.67 7.955l8.195-2.98375c-2.10375-2.16-3.5025-4.89375-4.06125-7.81375" fill="#eb2126"/><path d="m53.03832 9.8229946c-.25875-.42-.5275-.83375-.81375-1.23625l-8.2125 2.9887504c.36125.37.69375.7625 1.01125 1.165zm-35.14475 12.8963704c-.02-.5475-.0113-1.0975.0312-1.64875l-8.215 2.98875c.0425.52625.10875 1.04875.1875 1.57l7.99625-2.91z" fill="#ad213b"/><path d="m53.11157 21.685615-8.19625 2.9825c-.0863 1.18-.31625 2.3625-.6925 3.525l8.92125-3.2525c.0638-1.09.0537-2.1775-.0325-3.255m-42.49875 15.4675c.63125.88875 1.33 1.73625 2.08875 2.53625l8.9225-3.25375c-1.0425-.6525-1.985-1.41375-2.81625-2.26625z" fill="#ba2133"/><path d="m52.68932 54.532115v.74h2.14625v6.55375h.8125v-6.55375h2.1475v-.74zm-4.9285.73938v2.4175h2v.74h-2v3.39625h-.8125v-7.2925h4.2825v.73875zm-3.71775-.7385h.8125v7.29375h-.8125zm-2.90425 7.29287v-3.43875h-3.62625v3.43875h-.8125v-7.29375h.8125v3.11625h3.62625v-3.11625h.8125v7.29375zm-8.66675.11463c-.99 0-1.87625-.4275-2.44875-1.01l.5425-.605c.55125.53125 1.1875.87625 1.9375.87625.96875 0 1.57375-.48 1.57375-1.25125 0-.6775-.40625-1.0625-1.74-1.5425-1.57375-.5625-2.105-1.0725-2.105-2.125 0-1.1675.91625-1.86625 2.28125-1.86625.98 0 1.605.2925 2.22.7825l-.52125.635c-.53125-.4375-1.02125-.6775-1.75-.6775-1.00125 0-1.4175.5-1.4175 1.07375 0 .605.27125.9475 1.73 1.47 1.615.5825 2.115 1.125 2.115 2.20875 0 1.14625-.89625 2.03125-2.4175 2.03125m-5.7415-.11463-2.6775-3.98c-.1775-.27125-.4175-.63625-.51125-.82375 0 .27125.0212 1.1875.0212 1.59375v3.21h-1.43875v-7.29375h1.39625l2.585 3.855c.1775.27125.41625.63625.51.82375 0-.27125-.02-1.1875-.02-1.595v-3.08375h1.4375v7.29375h-1.3025zm-11.50112 0v-7.29375h5.06375v1.4275h-3.605v1.26125h2.095v1.41625h-2.095v1.76125h3.76125v1.4275zm-4.14475-2.58362h-1.605v2.58375h-1.45875v-7.29375h3.18875c1.375 0 2.51125.76125 2.51125 2.3125 0 1.68875-1.125 2.3975-2.63625 2.3975m.0738-3.2925h-1.67875v1.875h1.69875c.6775 0 1.0425-.31375 1.0425-.94875s-.4175-.92625-1.0625-.92625m-7.9485 5.99075c-1.9075 0-3.21-1.39625-3.21-3.75125s1.32375-3.7725 3.23125-3.7725c1.89625 0 3.19875 1.3975 3.19875 3.7525s-1.32375 3.77125-3.22 3.77125m-.01-6.075c-1.02125 0-1.69875.82375-1.69875 2.30375s.70875 2.3225 1.73 2.3225 1.6975-.8225 1.6975-2.3025-.7075-2.32375-1.72875-2.32375" fill="#241f21"/></svg>